# xmcd
#
# Track frame offsets:
#	150
#	7650
#	31793
#	47093
#	66593
#	70343
#	87243
#	99044
#	115360
#	130551
#	156951
#	183238
#	202383
#	213520
#	229094
#	243762
#	259558
#	273058
#	288058
#	304120
#
# Disc length: 4300 seconds
#
# Revision: 0
# Processed by: cddbd v1.5.2PL0 Copyright (c) Steve Scherf et al.
# Submitted via: EasyCDDAExtractor 16.0.4.1
#
DISCID=0910ca14
DTITLE=Nedžad Salković - Najveći Hitovi [ Live ]
DYEAR=2007
DGENRE=
TTITLE0=Uvodno kolo
TTITLE1=Pod Tuzlom se zeleni meraja
TTITLE2=Donju Tuzlu opasala guja
TTITLE3=Tuzlo moja
TTITLE4=Deciji pozdrav
TTITLE5=Ima jedna cura
TTITLE6=Sve,sve,sve je samo vaska
TTITLE7=Ah ljubav,ljubav
TTITLE8=Pozdravno obracanje
TTITLE9=Splet kola Radojke Zivkovic
TTITLE10=Sretan i bez nje
TTITLE11=Voljeni grade moj
TTITLE12=Srdo moja
TTITLE13=Tamburalo momce uz tamburu
TTITLE14=Zarasle su staze moje
TTITLE15=Kada moja mladost prodje
TTITLE16=Jesen u vrtu mom
TTITLE17=Imam samo pjesmu
TTITLE18=Mujo kuje
TTITLE19=Ne klepeci nanulama
EXTD=
EXTT0=
EXTT1=
EXTT2=
EXTT3=
EXTT4=
EXTT5=
EXTT6=
EXTT7=
EXTT8=
EXTT9=
EXTT10=
EXTT11=
EXTT12=
EXTT13=
EXTT14=
EXTT15=
EXTT16=
EXTT17=
EXTT18=
EXTT19=
PLAYORDER=
